<?xml version="1.0" encoding="UTF-8"?>
<svg xmlns="http://www.w3.org/2000/svg" xmlns:xlink="http://www.w3.org/1999/xlink" width="2579.75pt" height="2687.28pt" viewBox="0 0 2579.75 2687.28" version="1.1">
<defs>
<clipPath id="clip1">
  <path d="M 601 376 L 1908 376 L 1908 1520 L 601 1520 Z M 601 376 "/>
</clipPath>
<clipPath id="clip2">
  <path d="M 1653.699219 1211.601563 C 1653.699219 1211.601563 1667.320313 1232 1701.339844 1232 C 1739.871094 1232 1804.460938 1207.058594 1907.628906 1097.121094 C 1907.628906 1097.121094 1797.679688 1347.601563 1570.980469 1482.46875 L 1446.289063 1377.078125 L 1442.898438 1374.808594 L 1306.878906 1519.878906 C 1306.878906 1519.878906 998.585938 1492.671875 869.367188 1305.671875 C 869.367188 1305.671875 889.765625 1313.609375 911.300781 1313.609375 C 937.375 1314.730469 965.703125 1304.539063 965.703125 1261.46875 L 965.703125 820.578125 C 965.703125 797.910156 949.84375 772.96875 915.839844 772.96875 C 885.238281 774.101563 841.019531 794.5 780.960938 855.71875 C 655.144531 986.058594 604.144531 1110.730469 604.144531 1110.730469 C 604.144531 1110.730469 567.867188 931.648438 757.152344 714.039063 C 946.4375 496.429688 1089.25 417.078125 1242.28125 376.28125 C 1242.28125 376.28125 1121 447.679688 1121 554.230469 C 1121 585.96875 1125.53125 606.371094 1132.328125 621.089844 C 1141.398438 639.238281 1155 646.03125 1167.46875 646.03125 C 1177.671875 646.03125 1187.871094 641.488281 1195.800781 635.828125 L 1195.800781 1215.011719 C 1195.800781 1215.011719 1199.210938 1224.070313 1207.140625 1235.410156 C 1219.609375 1251.269531 1241.140625 1270.550781 1277.421875 1270.550781 C 1337.480469 1270.550781 1415.691406 1201.398438 1415.691406 1201.398438 L 1415.691406 732.171875 C 1415.691406 684.558594 1380.550781 626.769531 1344.289063 607.5 C 1344.289063 607.5 1421.351563 602.960938 1458.78125 632.429688 C 1458.78125 632.429688 1585.71875 479.421875 1819.199219 432.960938 C 1819.199219 432.960938 1694.53125 581.429688 1654.851563 655.101563 C 1648.039063 656.230469 1646.921875 794.5 1648.039063 933.921875 C 1649.191406 1067.660156 1651.460938 1202.539063 1653.699219 1211.601563 Z M 1653.699219 1211.601563 "/>
</clipPath>
<clipPath id="clip3">
  <path d="M 345 0 L 2230 0 L 2230 1900 L 345 1900 Z M 345 0 "/>
</clipPath>
<clipPath id="clip4">
  <path d="M 345.699219 949.78125 C 345.699219 425.011719 767.355469 0 1288.75 0 C 1809 0 2230.660156 425.011719 2229.511719 949.78125 C 2229.511719 1474.570313 1807.878906 1899.570313 1287.609375 1899.570313 C 767.355469 1899.570313 345.699219 1474.570313 345.699219 949.78125 Z M 1925.730469 308.28125 C 1755.730469 136 1529.03125 41.929688 1288.75 41.929688 C 1047.320313 41.929688 821.757813 136 651.738281 308.28125 C 481.71875 480.550781 387.648438 708.371094 387.648438 950.921875 C 387.648438 1193.46875 481.71875 1422.421875 651.738281 1593.550781 C 821.757813 1765.820313 1048.449219 1859.921875 1288.75 1859.921875 C 1529.03125 1859.921875 1755.730469 1764.699219 1925.730469 1593.550781 C 2095.769531 1421.269531 2189.859375 1193.46875 2189.859375 950.921875 C 2189.859375 708.371094 2095.769531 479.421875 1925.730469 308.28125 Z M 1925.730469 308.28125 "/>
</clipPath>
<clipPath id="clip5">
  <path d="M 610.9375 2499.140625 L 809.289063 2499.140625 L 809.289063 2539.941406 L 610.9375 2539.941406 Z M 610.9375 2539.941406 L 665.34375 2539.941406 L 665.34375 2571.691406 L 610.9375 2571.691406 Z M 610.9375 2571.691406 L 801.359375 2571.691406 L 801.359375 2610.21875 L 610.9375 2610.21875 Z M 610.9375 2610.21875 L 665.34375 2610.21875 L 665.34375 2641.941406 L 610.9375 2641.941406 Z M 610.9375 2641.941406 L 812.691406 2641.941406 L 812.691406 2683.890625 L 610.9375 2683.890625 Z M 610.9375 2641.941406 "/>
</clipPath>
<clipPath id="clip6">
  <path d="M 843 2499 L 1086 2499 L 1086 2684 L 843 2684 Z M 843 2499 "/>
</clipPath>
<clipPath id="clip7">
  <path d="M 1085.859375 2499.140625 L 1032.578125 2499.140625 L 1032.578125 2638.550781 L 1031.460938 2638.550781 L 926.039063 2499.140625 L 843.292969 2499.140625 L 843.292969 2683.890625 L 896.574219 2683.890625 L 896.574219 2545.601563 L 897.695313 2545.601563 L 1005.378906 2683.890625 L 1085.859375 2683.890625 Z M 1085.859375 2499.140625 "/>
</clipPath>
<clipPath id="clip8">
  <path d="M 1126 2499 L 1356 2499 L 1356 2687.28125 L 1126 2687.28125 Z M 1126 2499 "/>
</clipPath>
<clipPath id="clip9">
  <path d="M 1251.339844 2499.140625 L 1243.410156 2499.140625 C 1226.398438 2499.140625 1211.679688 2499.140625 1199.210938 2500.261719 C 1186.738281 2501.410156 1176.539063 2502.558594 1167.46875 2504.800781 C 1158.390625 2507.070313 1151.601563 2510.460938 1145.921875 2515 C 1140.261719 2518.421875 1136.859375 2524.078125 1133.46875 2530.859375 C 1131.199219 2537.699219 1128.929688 2545.601563 1127.789063 2555.800781 C 1126.660156 2564.878906 1126.660156 2576.199219 1126.660156 2589.820313 L 1126.660156 2594.359375 C 1126.660156 2606.800781 1126.660156 2619.300781 1127.789063 2628.351563 C 1128.929688 2638.550781 1130.058594 2646.480469 1133.46875 2653.289063 C 1135.71875 2660.101563 1140.261719 2665.757813 1145.921875 2670.300781 C 1151.601563 2674.839844 1158.390625 2678.230469 1167.46875 2680.5 C 1176.539063 2682.738281 1186.738281 2683.890625 1199.210938 2685.039063 C 1211.679688 2686.160156 1226.398438 2686.160156 1243.410156 2686.160156 L 1243.410156 2687.28125 L 1247.929688 2687.28125 C 1262.679688 2687.28125 1275.148438 2687.28125 1286.480469 2686.160156 C 1297.808594 2685.039063 1306.878906 2683.890625 1314.808594 2681.621094 C 1322.769531 2679.378906 1329.550781 2677.078125 1334.089844 2673.691406 C 1339.75 2670.300781 1343.171875 2665.757813 1346.558594 2661.21875 C 1349.949219 2656.679688 1352.21875 2651.019531 1353.371094 2644.238281 C 1354.488281 2637.429688 1355.609375 2629.5 1355.609375 2620.417969 L 1355.609375 2579.621094 L 1233.210938 2579.621094 L 1233.210938 2614.757813 L 1303.480469 2614.757813 L 1303.480469 2620.417969 C 1303.480469 2622.691406 1302.359375 2626.078125 1302.359375 2628.351563 C 1302.359375 2631.738281 1301.21875 2632.890625 1300.078125 2635.160156 C 1298.949219 2637.429688 1296.679688 2638.550781 1294.410156 2639.699219 C 1292.140625 2640.820313 1288.75 2640.820313 1284.210938 2641.941406 C 1280.808594 2641.941406 1275.148438 2643.089844 1269.46875 2643.089844 L 1217.339844 2643.089844 C 1210.539063 2643.089844 1203.730469 2641.941406 1199.210938 2640.820313 C 1194.671875 2639.699219 1190.140625 2638.550781 1187.871094 2636.28125 C 1184.46875 2634.039063 1182.199219 2630.621094 1181.058594 2627.230469 C 1179.929688 2623.839844 1178.808594 2619.300781 1178.808594 2613.640625 C 1177.671875 2609.101563 1177.671875 2602.289063 1177.671875 2594.359375 L 1177.671875 2590.941406 C 1177.671875 2583.039063 1178.808594 2576.199219 1178.808594 2570.539063 C 1178.808594 2564.878906 1179.929688 2560.339844 1181.058594 2556.949219 C 1183.328125 2553.558594 1185.601563 2550.140625 1187.871094 2547.898438 C 1190.140625 2546.75 1194.671875 2544.480469 1199.210938 2543.359375 C 1203.730469 2542.210938 1210.539063 2541.058594 1217.339844 2541.058594 L 1247.929688 2541.058594 C 1259.269531 2541.058594 1268.351563 2541.058594 1275.148438 2542.210938 C 1281.941406 2542.210938 1287.609375 2543.359375 1291.019531 2545.601563 C 1295.539063 2546.75 1297.808594 2549.019531 1298.949219 2552.410156 C 1300.078125 2554.679688 1301.21875 2558.101563 1301.21875 2562.609375 L 1301.21875 2564.878906 L 1353.371094 2564.878906 L 1353.371094 2558.101563 C 1353.371094 2550.140625 1353.371094 2542.210938 1352.21875 2536.550781 C 1351.070313 2529.738281 1349.949219 2525.199219 1346.558594 2520.660156 C 1344.289063 2517.300781 1339.75 2512.761719 1335.210938 2510.460938 C 1329.550781 2507.101563 1323.890625 2504.800781 1315.929688 2503.679688 C 1309.148438 2502.558594 1298.949219 2501.410156 1288.75 2500.261719 C 1278.550781 2499.140625 1266.078125 2499.140625 1251.339844 2499.140625 Z M 1251.339844 2499.140625 "/>
</clipPath>
<clipPath id="clip10">
  <path d="M 1490 2501 L 1731 2501 L 1731 2684 L 1490 2684 Z M 1490 2501 "/>
</clipPath>
<clipPath id="clip11">
  <path d="M 1650.339844 2683.890625 L 1730.820313 2683.890625 L 1730.820313 2501.410156 L 1678.640625 2501.410156 L 1678.640625 2638.550781 L 1677.519531 2638.550781 L 1572.101563 2501.410156 L 1490.5 2501.410156 L 1490.5 2683.890625 L 1542.621094 2683.890625 L 1542.621094 2546.75 L 1543.769531 2546.75 Z M 1650.339844 2683.890625 "/>
</clipPath>
<clipPath id="clip12">
  <path d="M 1773.859375 2501.410156 L 1969.949219 2501.410156 L 1969.949219 2541.058594 L 1773.859375 2541.058594 Z M 1773.859375 2541.058594 L 1827.148438 2541.058594 L 1827.148438 2572.808594 L 1773.859375 2572.808594 Z M 1773.859375 2572.808594 L 1963.171875 2572.808594 L 1963.171875 2611.339844 L 1773.859375 2611.339844 Z M 1773.859375 2611.339844 L 1827.148438 2611.339844 L 1827.148438 2643.089844 L 1773.859375 2643.089844 Z M 1773.859375 2643.089844 L 1973.371094 2643.089844 L 1973.371094 2683.890625 L 1773.859375 2683.890625 Z M 1773.859375 2643.089844 "/>
</clipPath>
<clipPath id="clip13">
  <path d="M 0 2074 L 398 2074 L 398 2401 L 0 2401 Z M 0 2074 "/>
</clipPath>
<clipPath id="clip14">
  <path d="M 397.851563 2282.648438 L 397.851563 2074.121094 L 302.632813 2074.121094 L 302.632813 2252.050781 C 302.632813 2263.398438 302.632813 2272.449219 301.496094 2280.410156 C 300.359375 2288.339844 299.242188 2295.148438 296.972656 2300.808594 C 294.703125 2306.46875 291.300781 2311.011719 286.773438 2314.398438 C 282.234375 2317.789063 275.4375 2320.089844 268.628906 2322.328125 C 260.699219 2323.480469 251.632813 2324.601563 241.433594 2325.75 C 230.097656 2326.871094 217.628906 2326.871094 202.890625 2326.871094 L 194.960938 2326.871094 C 180.222656 2326.871094 166.613281 2326.871094 156.417969 2325.75 C 145.082031 2325.75 136.019531 2324.601563 129.222656 2322.328125 C 121.277344 2320.089844 115.617188 2317.789063 111.078125 2314.398438 C 106.554688 2311.011719 103.148438 2306.46875 100.878906 2300.808594 C 98.605469 2295.148438 97.472656 2288.339844 96.351563 2280.410156 C 95.21875 2272.449219 95.21875 2263.398438 95.21875 2252.050781 L 95.21875 2074.121094 L 0 2074.121094 L 0 2282.648438 C 0 2298.539063 1.136719 2312.128906 3.40625 2324.601563 C 5.675781 2337.070313 9.066406 2347.269531 14.738281 2356.351563 C 20.402344 2364.28125 28.34375 2372.210938 37.410156 2377.871094 C 46.472656 2383.53125 57.808594 2388.070313 72.546875 2391.488281 C 87.273438 2394.878906 104.28125 2397.148438 123.546875 2398.269531 C 143.945313 2399.421875 166.613281 2400.539063 192.691406 2400.539063 L 205.160156 2400.539063 C 231.234375 2400.539063 253.902344 2399.421875 274.304688 2398.269531 C 293.566406 2397.148438 310.574219 2394.878906 325.300781 2391.488281 C 338.90625 2388.070313 351.375 2383.53125 360.441406 2377.871094 C 370.640625 2372.210938 377.449219 2365.429688 383.109375 2356.351563 C 388.785156 2347.269531 392.175781 2337.070313 394.445313 2324.601563 C 396.714844 2312.128906 397.851563 2298.539063 397.851563 2282.648438 Z M 397.851563 2282.648438 "/>
</clipPath>
<clipPath id="clip15">
  <path d="M 461 2074 L 886 2074 L 886 2398 L 461 2398 Z M 461 2074 "/>
</clipPath>
<clipPath id="clip16">
  <path d="M 461.316406 2397.148438 L 554.265625 2397.148438 L 554.265625 2155.710938 L 556.535156 2155.710938 L 743.550781 2397.148438 L 885.238281 2397.148438 L 885.238281 2074.121094 L 792.292969 2074.121094 L 792.292969 2315.550781 L 791.15625 2315.550781 L 605.261719 2074.121094 L 461.316406 2074.121094 Z M 461.316406 2397.148438 "/>
</clipPath>
<clipPath id="clip17">
  <path d="M 950 2073 L 1333 2073 L 1333 2398 L 950 2398 Z M 950 2073 "/>
</clipPath>
<clipPath id="clip18">
  <path d="M 1240.011719 2397.148438 L 1331.820313 2397.148438 L 1331.820313 2346.148438 C 1331.820313 2331.410156 1330.671875 2320.089844 1329.550781 2311.011719 C 1328.429688 2301.929688 1326.128906 2294 1321.621094 2288.339844 C 1317.078125 2282.648438 1311.421875 2279.261719 1304.609375 2275.871094 C 1296.679688 2273.601563 1287.609375 2271.328125 1276.28125 2269.058594 L 1276.28125 2266.789063 C 1286.480469 2264.550781 1295.539063 2261.128906 1302.359375 2256.589844 C 1309.148438 2252.050781 1314.808594 2246.390625 1319.351563 2239.609375 C 1323.890625 2232.800781 1327.28125 2223.75 1329.550781 2214.671875 C 1331.820313 2205.589844 1332.96875 2194.269531 1332.96875 2181.800781 L 1332.96875 2170.449219 C 1332.96875 2152.320313 1330.671875 2136.460938 1327.28125 2123.988281 C 1323.890625 2111.519531 1317.078125 2101.320313 1306.878906 2093.390625 C 1297.808594 2086.578125 1284.210938 2080.921875 1267.210938 2077.53125 C 1250.210938 2074.121094 1228.671875 2073 1202.601563 2073 L 950.980469 2073 L 950.980469 2396.019531 L 1045.050781 2396.019531 L 1045.050781 2306.46875 L 1140.261719 2306.46875 C 1155 2306.46875 1168.589844 2307.589844 1178.808594 2307.589844 C 1190.140625 2308.738281 1199.210938 2309.890625 1206 2311.011719 C 1213.929688 2313.25 1219.609375 2314.398438 1224.128906 2317.789063 C 1228.671875 2320.089844 1232.078125 2324.601563 1234.351563 2329.140625 C 1236.601563 2333.679688 1237.738281 2339.339844 1238.871094 2346.148438 C 1240.011719 2354.078125 1240.011719 2362.011719 1240.011719 2371.089844 Z M 1203.730469 2236.191406 C 1193.53125 2237.308594 1179.929688 2237.308594 1164.070313 2237.308594 L 1046.179688 2237.308594 L 1046.179688 2145.511719 L 1165.199219 2145.511719 C 1181.058594 2145.511719 1193.53125 2145.511719 1203.730469 2146.660156 C 1213.929688 2147.808594 1220.738281 2148.929688 1226.398438 2152.320313 C 1232.078125 2154.589844 1235.46875 2159.128906 1236.601563 2164.789063 C 1237.738281 2170.449219 1238.871094 2178.410156 1238.871094 2187.460938 L 1238.871094 2193.121094 C 1238.871094 2202.199219 1237.738281 2210.128906 1236.601563 2215.789063 C 1234.351563 2221.449219 1230.941406 2225.988281 1226.398438 2229.410156 C 1220.738281 2232.800781 1213.929688 2235.070313 1203.730469 2236.191406 Z M 1203.730469 2236.191406 "/>
</clipPath>
<clipPath id="clip19">
  <path d="M 1395.289063 2074.121094 L 1742.140625 2074.121094 L 1742.140625 2145.511719 L 1395.289063 2145.511719 Z M 1395.289063 2145.511719 L 1490.5 2145.511719 L 1490.5 2199.929688 L 1395.289063 2199.929688 Z M 1395.289063 2199.929688 L 1728.519531 2199.929688 L 1728.519531 2267.941406 L 1395.289063 2267.941406 Z M 1395.289063 2267.941406 L 1490.5 2267.941406 L 1490.5 2323.480469 L 1395.289063 2323.480469 Z M 1395.289063 2323.480469 L 1747.800781 2323.480469 L 1747.800781 2397.148438 L 1395.289063 2397.148438 Z M 1395.289063 2323.480469 "/>
</clipPath>
<clipPath id="clip20">
  <path d="M 1767 2074 L 2233 2074 L 2233 2398 L 1767 2398 Z M 1767 2074 "/>
</clipPath>
<clipPath id="clip21">
  <path d="M 1767.078125 2397.148438 L 1869.070313 2397.148438 L 1898.550781 2339.339844 L 2100.308594 2339.339844 L 2129.789063 2397.148438 L 2232.898438 2397.148438 L 2057.238281 2074.121094 L 1940.46875 2074.121094 Z M 2000.550781 2140.96875 L 2066.289063 2271.328125 L 1932.570313 2271.328125 L 1998.308594 2140.96875 Z M 2000.550781 2140.96875 "/>
</clipPath>
<clipPath id="clip22">
  <path d="M 2268.039063 2074.121094 L 2363.261719 2074.121094 L 2363.261719 2322.328125 L 2268.039063 2322.328125 Z M 2268.039063 2322.328125 L 2579.75 2322.328125 L 2579.75 2397.148438 L 2268.039063 2397.148438 Z M 2268.039063 2322.328125 "/>
</clipPath>
<clipPath id="clip23">
  <path d="M 1395.289063 2501.410156 L 1449.699219 2501.410156 L 1449.699219 2685.039063 L 1395.289063 2685.039063 Z M 1395.289063 2501.410156 "/>
</clipPath>
</defs>
<g id="surface1">
<g clip-path="url(#clip1)" clip-rule="nonzero">
<g clip-path="url(#clip2)" clip-rule="evenodd">
<path style=" stroke:none;fill-rule:nonzero;fill:rgb(24.699402%,27.49939%,27.099609%);fill-opacity:1;" d="M 587.136719 362.679688 L 1920.070313 362.679688 L 1920.070313 1534.621094 L 587.136719 1534.621094 L 587.136719 362.679688 "/>
</g>
</g>
<g clip-path="url(#clip3)" clip-rule="nonzero">
<g clip-path="url(#clip4)" clip-rule="evenodd">
<path style=" stroke:none;fill-rule:nonzero;fill:rgb(24.699402%,27.49939%,27.099609%);fill-opacity:1;" d="M 332.109375 -13.601563 L 2243.101563 -13.601563 L 2243.101563 1913.160156 L 332.109375 1913.160156 L 332.109375 -13.601563 "/>
</g>
</g>
<g clip-path="url(#clip5)" clip-rule="nonzero">
<path style=" stroke:none;fill-rule:nonzero;fill:rgb(24.699402%,27.49939%,27.099609%);fill-opacity:1;" d="M 597.335938 2486.671875 L 825.164063 2486.671875 L 825.164063 2698.628906 L 597.335938 2698.628906 L 597.335938 2486.671875 "/>
</g>
<g clip-path="url(#clip6)" clip-rule="nonzero">
<g clip-path="url(#clip7)" clip-rule="evenodd">
<path style=" stroke:none;fill-rule:nonzero;fill:rgb(24.699402%,27.49939%,27.099609%);fill-opacity:1;" d="M 829.6875 2486.671875 L 1099.460938 2486.671875 L 1099.460938 2698.628906 L 829.6875 2698.628906 L 829.6875 2486.671875 "/>
</g>
</g>
<g clip-path="url(#clip8)" clip-rule="nonzero">
<g clip-path="url(#clip9)" clip-rule="evenodd">
<path style=" stroke:none;fill-rule:nonzero;fill:rgb(24.699402%,27.49939%,27.099609%);fill-opacity:1;" d="M 1113.058594 2485.550781 L 1371.46875 2485.550781 L 1371.46875 2699.78125 L 1113.058594 2699.78125 L 1113.058594 2485.550781 "/>
</g>
</g>
<g clip-path="url(#clip10)" clip-rule="nonzero">
<g clip-path="url(#clip11)" clip-rule="evenodd">
<path style=" stroke:none;fill-rule:nonzero;fill:rgb(24.699402%,27.49939%,27.099609%);fill-opacity:1;" d="M 1476.878906 2487.820313 L 1744.378906 2487.820313 L 1744.378906 2697.480469 L 1476.878906 2697.480469 L 1476.878906 2487.820313 "/>
</g>
</g>
<g clip-path="url(#clip12)" clip-rule="nonzero">
<path style=" stroke:none;fill-rule:nonzero;fill:rgb(24.699402%,27.49939%,27.099609%);fill-opacity:1;" d="M 1760.269531 2487.820313 L 1986.960938 2487.820313 L 1986.960938 2697.480469 L 1760.269531 2697.480469 L 1760.269531 2487.820313 "/>
</g>
<g clip-path="url(#clip13)" clip-rule="nonzero">
<g clip-path="url(#clip14)" clip-rule="evenodd">
<path style=" stroke:none;fill-rule:nonzero;fill:rgb(24.699402%,27.49939%,27.099609%);fill-opacity:1;" d="M -13.601563 2060.53125 L 410.320313 2060.53125 L 410.320313 2414.128906 L -13.601563 2414.128906 L -13.601563 2060.53125 "/>
</g>
</g>
<g clip-path="url(#clip15)" clip-rule="nonzero">
<g clip-path="url(#clip16)" clip-rule="evenodd">
<path style=" stroke:none;fill-rule:nonzero;fill:rgb(24.699402%,27.49939%,27.099609%);fill-opacity:1;" d="M 447.710938 2060.53125 L 898.832031 2060.53125 L 898.832031 2410.738281 L 447.710938 2410.738281 L 447.710938 2060.53125 "/>
</g>
</g>
<g clip-path="url(#clip17)" clip-rule="nonzero">
<g clip-path="url(#clip18)" clip-rule="evenodd">
<path style=" stroke:none;fill-rule:nonzero;fill:rgb(24.699402%,27.49939%,27.099609%);fill-opacity:1;" d="M 938.511719 2060.53125 L 1347.710938 2060.53125 L 1347.710938 2410.738281 L 938.511719 2410.738281 L 938.511719 2060.53125 "/>
</g>
</g>
<g clip-path="url(#clip19)" clip-rule="nonzero">
<path style=" stroke:none;fill-rule:nonzero;fill:rgb(24.699402%,27.49939%,27.099609%);fill-opacity:1;" d="M 1382.820313 2060.53125 L 1761.421875 2060.53125 L 1761.421875 2410.738281 L 1382.820313 2410.738281 L 1382.820313 2060.53125 "/>
</g>
<g clip-path="url(#clip20)" clip-rule="nonzero">
<g clip-path="url(#clip21)" clip-rule="evenodd">
<path style=" stroke:none;fill-rule:nonzero;fill:rgb(24.699402%,27.49939%,27.099609%);fill-opacity:1;" d="M 1754.578125 2060.53125 L 2246.519531 2060.53125 L 2246.519531 2410.738281 L 1754.578125 2410.738281 L 1754.578125 2060.53125 "/>
</g>
</g>
<g clip-path="url(#clip22)" clip-rule="nonzero">
<path style=" stroke:none;fill-rule:nonzero;fill:rgb(24.699402%,27.49939%,27.099609%);fill-opacity:1;" d="M 2254.449219 2060.53125 L 2592.21875 2060.53125 L 2592.21875 2410.738281 L 2254.449219 2410.738281 L 2254.449219 2060.53125 "/>
</g>
<g clip-path="url(#clip23)" clip-rule="nonzero">
<path style=" stroke:none;fill-rule:nonzero;fill:rgb(24.699402%,27.49939%,27.099609%);fill-opacity:1;" d="M 1381.699219 2487.820313 L 1462.148438 2487.820313 L 1462.148438 2697.480469 L 1381.699219 2697.480469 L 1381.699219 2487.820313 "/>
</g>
</g>
</svg>
